<svg width="280" height="280" xmlns="http://www.w3.org/2000/svg">
    <!--fond-->

    <circle r="130" fill="#ffffff" cx="150" cy="150" />


    <!--R-->
    <polyline fill="none" stroke="#4258ff" stroke-width="20" points="100,230 100,80 150,80 150,150 100,150 200,230" />
    <polyline fill="none" stroke="#ffffff" stroke-width="20" points="80,180 80,100" />

    <!--R courbure-->
    <circle r="45" fill="#4258ff" cx="155" cy="115" />
    <circle r="30" fill="#ffffff" cx="154" cy="115" />
    <rect width="45" height="60" fill="#ffffff" x="110" y="85" />

    <!--bas droit R-->
    <rect width="25" height="55" fill="#4258ff" x="194" y="183" />
    <circle r="20" fill="#ffffff" cx="204" cy="195" />

    <!--bas gauche R-->
    <rect width="50" height="25" fill="#4258ff" x="75" y="225" />
    <circle r="15" fill="#ffffff" cx="75" cy="225" />

    <!--haut gauche R-->
    <rect width="40" height="25" fill="#4258ff" x="70" y="70" />
    <circle r="20" fill="#ffffff" cx="70.3" cy="100" />

    <!--Cercle-->
    <circle r="95" stroke="#4258ff" stroke-width="6" fill="none" cx="150" cy="150" />
    <rect width="25" height="5" fill="#ffffff" x="90" y="65" />
    <rect width="5" height="35" fill="#ffffff" x="218" y="203" />
    <circle r="15" fill="#ffffff" cx="125" cy="225" />
    <rect width="5" height="25" fill="#ffffff" x="125" y="225" />
    <rect width="5" height="15" fill="#ffffff" x="85" y="212" />
    <rect width="5" height="15" fill="#ffffff" x="185.1" y="235" transform="rotate(-50, 180, 240)" />
    <ellipse cx="72.5" cy="91" rx="2.5" ry="5" fill="#ffffff" transform="rotate(-50, 70, 80)" />
    <rect width="3" height="8" fill="#fefefe" x="70" y="88" transform="rotate(-50, 70, 80)" />

    <!--Cinéma-->
    <rect width="35" height="30" fill="#4258ff" x="155" y="175" transform="rotate(-10, 150, 1)" />
    <rect width="37" height="10" fill="#4258ff" x="66" y="145" transform="rotate(-40, 150, 1)" />
    <rect width="15" height="5" fill="#ffffff" x="212" y="120" transform="rotate(40, 150, 100)" />
    <rect width="15" height="5" fill="#ffffff" x="215" y="105" transform="rotate(40, 150, 100)" />

</svg>